# xmcd CD database file
#
# Track frame offsets:
#	150
#	10206
#	35260
#	50389
#	70178
#	86205
#	106129
#	127103
#	145762
#	158530
#	178670
#	197076
#
# Disc length: 2895 seconds
#
# Revision: 0
# Processed by: cddbd v1.5.2PL0 Copyright (c) Steve Scherf et al.
# Submitted via: CDex 1.51
#
DISCID=9c0b4d0c
DTITLE=the Catillacs - Meow Mix
DYEAR=2008
DGENRE=Blues
TTITLE0=Boogaloo
TTITLE1=Soul Survivors
TTITLE2=Queen of Denial
TTITLE3=Ain't No Middle Ground
TTITLE4=Mean Old World
TTITLE5=Deep Blue Sea
TTITLE6=True Love Figurine
TTITLE7=Love Bank
TTITLE8=Me and the Devil Blues
TTITLE9=In the Fall
TTITLE10=Hoodoo Laveaux
TTITLE11=Headlights
EXTD=YEAR: 2008
EXTT0=
EXTT1=
EXTT2=
EXTT3=
EXTT4=
EXTT5=
EXTT6=
EXTT7=
EXTT8=
EXTT9=
EXTT10=
EXTT11=
PLAYORDER=
